<svg xmlns="http://www.w3.org/2000/svg" xmlns:xlink="http://www.w3.org/1999/xlink" width="500" zoomAndPan="magnify" viewBox="0 0 375 374.999991" height="500" preserveAspectRatio="xMidYMid meet" version="1.0"><defs><clipPath id="f9d4f0309d"><path d="M 3.472656 3.242188 L 370.222656 3.242188 L 370.222656 369.992188 L 3.472656 369.992188 Z M 3.472656 3.242188 " clip-rule="nonzero"/></clipPath><clipPath id="1c74790d4b"><path d="M 121.070312 98.175781 L 253.820312 98.175781 L 253.820312 275.175781 L 121.070312 275.175781 Z M 121.070312 98.175781 " clip-rule="nonzero"/></clipPath></defs><g clip-path="url(#f9d4f0309d)"><path fill="#64ffda" d="M 186.847656 16.339844 C 163.796875 16.339844 141.789062 20.828125 120.796875 29.8125 C 99.800781 38.792969 81.6875 50.917969 66.417969 66.1875 C 51.152344 81.457031 39.027344 99.605469 30.042969 120.5625 C 21.0625 141.519531 16.570312 163.5625 16.570312 186.617188 C 16.570312 209.667969 21.0625 231.671875 30.042969 252.667969 C 39.027344 273.664062 51.152344 291.773438 66.417969 307.042969 C 81.6875 322.3125 99.839844 334.4375 120.796875 343.417969 C 141.753906 352.402344 163.796875 356.890625 186.847656 356.890625 C 209.902344 356.890625 231.90625 352.402344 252.902344 343.417969 C 273.894531 334.4375 292.007812 322.3125 307.277344 307.042969 C 322.546875 291.773438 334.671875 273.625 343.652344 252.667969 C 352.632812 231.671875 357.125 209.667969 357.125 186.617188 C 357.125 163.5625 352.632812 141.558594 343.652344 120.5625 C 334.671875 99.566406 322.546875 81.457031 307.277344 66.1875 C 292.007812 50.917969 273.859375 38.792969 252.902344 29.8125 C 231.90625 20.828125 209.902344 16.339844 186.847656 16.339844 Z M 186.847656 3.242188 C 237.296875 3.242188 280.480469 21.203125 316.371094 57.09375 C 352.261719 92.980469 370.222656 136.167969 370.222656 186.617188 C 370.222656 237.0625 352.261719 280.25 316.371094 316.136719 C 280.480469 352.027344 237.296875 369.992188 186.847656 369.992188 C 136.402344 369.992188 93.214844 352.027344 57.324219 316.136719 C 21.4375 280.25 3.472656 237.0625 3.472656 186.617188 C 3.472656 136.167969 21.4375 92.980469 57.324219 57.09375 C 93.214844 21.203125 136.402344 3.242188 186.847656 3.242188 Z M 186.847656 3.242188 " fill-opacity="1" fill-rule="nonzero"/></g><g clip-path="url(#1c74790d4b)"><path fill="#64ffda" d="M 192.976562 200.195312 C 204.039062 200.195312 220.632812 203.269531 220.632812 220.476562 C 220.632812 237.683594 205.882812 241.988281 192.976562 241.988281 L 154.257812 241.988281 L 154.257812 139.964844 L 121.070312 139.964844 L 121.070312 275.175781 L 192.976562 275.175781 C 232.308594 275.175781 253.820312 257.351562 253.820312 224.777344 C 253.820312 192.207031 234.765625 182.988281 220.632812 182.988281 C 235.382812 182.988281 248.289062 162.089844 248.289062 143.652344 C 248.289062 135.664062 245.828125 98.175781 184.371094 98.175781 L 121.070312 98.175781 L 121.070312 131.363281 L 187.445312 131.363281 C 203.421875 131.363281 210.492188 137.816406 210.492188 147.648438 C 210.492188 157.480469 202.808594 167.007812 184.371094 167.007812 L 162.859375 167.007812 L 162.859375 200.195312 L 192.976562 200.195312 " fill-opacity="1" fill-rule="nonzero"/></g></svg>