<svg xmlns="http://www.w3.org/2000/svg" xmlns:xlink="http://www.w3.org/1999/xlink" width="500" zoomAndPan="magnify" viewBox="0 0 375 374.999991" height="500" preserveAspectRatio="xMidYMid meet" version="1.0"><defs><clipPath id="7f39022267"><path d="M 7.585938 5.65625 L 366.085938 5.65625 L 366.085938 364.15625 L 7.585938 364.15625 Z M 7.585938 5.65625 " clip-rule="nonzero"/></clipPath><clipPath id="b5b6a9a22b"><path d="M 134.167969 100.066406 L 261.667969 100.066406 L 261.667969 270.316406 L 134.167969 270.316406 Z M 134.167969 100.066406 " clip-rule="nonzero"/></clipPath></defs><g clip-path="url(#7f39022267)"><path fill="#64ffda" d="M 186.835938 5.65625 C 87.796875 5.65625 7.585938 85.871094 7.585938 184.90625 C 7.585938 283.941406 87.796875 364.15625 186.835938 364.15625 C 285.871094 364.15625 366.085938 283.941406 366.085938 184.90625 C 366.085938 85.871094 285.871094 5.65625 186.835938 5.65625 Z M 186.835938 328.304688 C 107.605469 328.304688 43.433594 264.132812 43.433594 184.90625 C 43.433594 105.675781 107.605469 41.507812 186.835938 41.507812 C 266.0625 41.507812 330.234375 105.675781 330.234375 184.90625 C 330.234375 264.132812 266.0625 328.304688 186.835938 328.304688 Z M 186.835938 328.304688 " fill-opacity="1" fill-rule="nonzero"/></g><g clip-path="url(#b5b6a9a22b)"><path fill="#64ffda" d="M 203.230469 198.199219 C 213.855469 198.199219 229.792969 201.152344 229.792969 217.703125 C 229.792969 234.257812 215.625 238.394531 203.230469 238.394531 L 166.042969 238.394531 L 166.042969 140.265625 L 134.167969 140.265625 L 134.167969 270.316406 L 203.230469 270.316406 C 241.007812 270.316406 261.667969 253.171875 261.667969 221.84375 C 261.667969 190.511719 243.371094 181.644531 229.792969 181.644531 C 243.960938 181.644531 256.355469 161.546875 256.355469 143.8125 C 256.355469 136.128906 253.996094 100.070312 194.964844 100.070312 L 134.167969 100.070312 L 134.167969 131.992188 L 197.917969 131.992188 C 213.265625 131.992188 220.054688 138.199219 220.054688 147.65625 C 220.054688 157.113281 212.675781 166.277344 194.964844 166.277344 L 174.308594 166.277344 L 174.308594 198.199219 L 203.230469 198.199219 " fill-opacity="1" fill-rule="nonzero"/></g></svg>