<svg xmlns="http://www.w3.org/2000/svg" xmlns:xlink="http://www.w3.org/1999/xlink" width="500" zoomAndPan="magnify" viewBox="0 0 375 374.999991" height="500" preserveAspectRatio="xMidYMid meet" version="1.0"><defs><clipPath id="158a29064e"><path d="M 96.449219 89 L 267.449219 89 L 267.449219 289.851562 L 96.449219 289.851562 Z M 96.449219 89 " clip-rule="nonzero"/></clipPath><clipPath id="2d53b4f185"><path d="M 3.472656 3.242188 L 370.222656 3.242188 L 370.222656 369.992188 L 3.472656 369.992188 Z M 3.472656 3.242188 " clip-rule="nonzero"/></clipPath></defs><g clip-path="url(#158a29064e)"><path fill="#64ffda" d="M 266.972656 210.777344 C 266.5 206.566406 265.390625 202.453125 263.734375 198.738281 C 262.082031 195.015625 259.914062 191.707031 257.507812 188.90625 C 255.101562 186.101562 252.472656 183.785156 249.832031 181.855469 C 247.183594 179.925781 244.519531 178.355469 241.910156 177.101562 C 239.300781 175.835938 236.769531 174.808594 234.328125 174.019531 C 230.792969 172.835938 227.484375 172.066406 224.441406 171.546875 C 226.601562 170.734375 229.0625 169.710938 231.472656 168.515625 C 233.128906 167.71875 234.738281 166.8125 236.234375 165.9375 C 236.976562 165.480469 237.691406 165.042969 238.359375 164.601562 C 239.019531 164.148438 239.660156 163.746094 240.21875 163.324219 C 241.359375 162.515625 242.269531 161.773438 242.914062 161.265625 C 243.539062 160.730469 243.894531 160.425781 243.894531 160.425781 C 245.457031 159.0625 246.847656 157.71875 248.050781 156.375 C 248.671875 155.722656 249.210938 155.039062 249.753906 154.402344 C 250.019531 154.078125 250.265625 153.746094 250.515625 153.425781 C 250.761719 153.105469 251.011719 152.796875 251.230469 152.476562 C 253.050781 149.945312 254.339844 147.617188 255.320312 145.554688 C 255.824219 144.527344 256.207031 143.546875 256.582031 142.644531 C 256.910156 141.726562 257.246094 140.886719 257.476562 140.085938 C 257.605469 139.683594 257.726562 139.296875 257.84375 138.925781 C 257.941406 138.542969 258.035156 138.175781 258.128906 137.816406 C 258.21875 137.457031 258.316406 137.113281 258.386719 136.769531 C 258.453125 136.425781 258.515625 136.089844 258.578125 135.761719 C 258.882812 134.210938 259.027344 132.546875 259.089844 130.804688 C 259.089844 130.367188 259.082031 129.925781 259.074219 129.480469 C 259.070312 129.035156 259.058594 128.585938 259.015625 128.132812 C 258.976562 127.675781 258.9375 127.21875 258.898438 126.753906 C 258.839844 126.292969 258.765625 125.832031 258.695312 125.363281 C 258.386719 123.492188 257.914062 121.570312 257.199219 119.675781 C 256.496094 117.78125 255.609375 115.882812 254.5 114.074219 C 253.394531 112.269531 252.132812 110.492188 250.675781 108.855469 C 249.222656 107.214844 247.628906 105.65625 245.898438 104.210938 C 244.167969 102.78125 242.316406 101.453125 240.367188 100.226562 C 238.414062 99.019531 236.363281 97.921875 234.242188 96.914062 C 232.117188 95.925781 229.914062 95.042969 227.652344 94.246094 C 225.386719 93.480469 223.0625 92.789062 220.691406 92.214844 C 220.097656 92.0625 219.5 91.941406 218.902344 91.804688 C 218.300781 91.667969 217.699219 91.535156 217.105469 91.429688 C 215.914062 91.210938 214.71875 90.953125 213.503906 90.769531 C 212.285156 90.59375 211.066406 90.375 209.824219 90.234375 C 209.207031 90.160156 208.585938 90.085938 207.960938 90.015625 C 207.335938 89.941406 206.710938 89.867188 206.082031 89.824219 C 196.019531 88.898438 185.289062 89.425781 174.617188 91.761719 C 165.8125 93.671875 157.015625 96.898438 148.789062 101.285156 C 140.554688 105.664062 132.898438 111.191406 126.214844 117.5 C 119.527344 123.804688 113.828125 130.902344 109.324219 138.28125 C 104.816406 145.660156 101.515625 153.332031 99.433594 160.738281 C 97.335938 168.144531 96.472656 175.269531 96.460938 181.582031 C 96.453125 184.742188 96.6875 187.703125 97.023438 190.417969 C 97.117188 191.097656 97.210938 191.761719 97.300781 192.410156 C 97.40625 193.058594 97.53125 193.691406 97.640625 194.308594 C 97.699219 194.621094 97.753906 194.925781 97.808594 195.226562 C 97.871094 195.527344 97.941406 195.824219 98.007812 196.113281 C 98.140625 196.699219 98.269531 197.269531 98.394531 197.824219 C 99.492188 202.246094 100.785156 205.601562 101.769531 207.839844 C 101.890625 208.121094 102 208.386719 102.105469 208.636719 C 102.222656 208.878906 102.328125 209.109375 102.429688 209.320312 C 102.628906 209.742188 102.800781 210.097656 102.9375 210.382812 C 103.210938 210.953125 103.351562 211.25 103.351562 211.25 C 103.351562 211.25 103.265625 210.933594 103.097656 210.324219 C 103.011719 210.015625 102.910156 209.640625 102.785156 209.191406 C 102.726562 208.96875 102.660156 208.726562 102.589844 208.46875 C 102.527344 208.207031 102.464844 207.929688 102.394531 207.632812 C 101.816406 205.285156 101.121094 201.8125 100.761719 197.4375 C 100.726562 196.890625 100.691406 196.328125 100.652344 195.75 C 100.636719 195.464844 100.613281 195.175781 100.601562 194.882812 C 100.59375 194.585938 100.589844 194.289062 100.582031 193.988281 C 100.570312 193.386719 100.546875 192.773438 100.542969 192.148438 C 100.554688 191.523438 100.5625 190.882812 100.574219 190.234375 C 100.660156 187.632812 100.859375 184.847656 101.300781 181.929688 C 102.179688 176.089844 103.894531 169.714844 106.667969 163.269531 C 109.429688 156.824219 113.238281 150.324219 117.980469 144.191406 C 122.722656 138.058594 128.382812 132.289062 134.726562 127.234375 C 141.070312 122.179688 148.078125 117.828125 155.394531 114.378906 C 162.710938 110.921875 170.332031 108.371094 177.890625 106.730469 C 186.539062 104.828125 195.195312 104.199219 203.472656 104.570312 C 207.609375 104.757812 211.671875 105.199219 215.578125 105.835938 C 217.496094 106.152344 219.367188 106.539062 221.191406 106.980469 C 223.003906 107.441406 224.78125 107.925781 226.472656 108.519531 C 233.269531 110.808594 239.019531 114.179688 242.949219 118.265625 C 243.949219 119.273438 244.789062 120.351562 245.566406 121.425781 C 246.335938 122.511719 246.949219 123.636719 247.511719 124.757812 C 248.558594 127.027344 249.234375 129.347656 249.496094 131.644531 C 249.535156 131.96875 249.574219 132.300781 249.613281 132.636719 C 249.632812 132.980469 249.65625 133.332031 249.679688 133.691406 C 249.710938 134.050781 249.714844 134.417969 249.710938 134.796875 C 249.707031 135.179688 249.734375 135.570312 249.703125 135.96875 C 249.65625 137.570312 249.425781 139.371094 248.964844 141.28125 C 248.5 143.199219 247.621094 145.183594 246.613281 147.375 C 237.25 167.75 180.339844 173.171875 180.339844 173.171875 C 180.339844 173.171875 237.484375 177.476562 246.816406 203.488281 C 248.402344 207.910156 248.988281 212.851562 247.933594 218.449219 C 247.890625 218.796875 247.800781 219.148438 247.71875 219.503906 C 247.636719 219.855469 247.558594 220.210938 247.480469 220.5625 C 247.34375 221.265625 247.109375 222.007812 246.917969 222.742188 C 246.480469 224.199219 246.007812 225.65625 245.421875 227.082031 C 244.292969 229.945312 242.835938 232.714844 241.082031 235.378906 C 237.570312 240.703125 232.742188 245.535156 226.847656 249.679688 C 220.96875 253.835938 214.039062 257.28125 206.523438 260 C 199.003906 262.699219 190.867188 264.703125 182.546875 265.84375 C 179.722656 266.226562 176.898438 266.511719 174.121094 266.679688 C 171.351562 266.839844 168.597656 266.890625 166.089844 266.753906 L 165.167969 266.695312 L 163.183594 266.515625 L 162.195312 266.398438 C 161.535156 266.328125 160.886719 266.230469 160.234375 266.132812 C 159.582031 266.046875 158.945312 265.921875 158.300781 265.808594 C 155.742188 265.332031 153.246094 264.714844 150.878906 263.910156 C 146.15625 262.304688 141.886719 260.054688 138.53125 257.164062 C 137.671875 256.453125 136.914062 255.679688 136.160156 254.898438 C 135.808594 254.492188 135.441406 254.097656 135.105469 253.679688 C 134.785156 253.253906 134.429688 252.851562 134.140625 252.40625 C 132.910156 250.675781 131.882812 248.8125 131.117188 246.804688 C 129.582031 242.796875 129.003906 238.234375 129.253906 233.515625 C 129.480469 228.792969 130.539062 223.953125 132.007812 219.269531 C 133.496094 214.578125 135.4375 210.03125 137.5625 205.691406 C 139.699219 201.351562 142.054688 197.226562 144.480469 193.328125 C 149.339844 185.53125 154.433594 178.628906 159.140625 172.628906 C 163.867188 166.640625 168.230469 161.550781 171.894531 157.402344 C 175.566406 153.265625 178.519531 150.050781 180.550781 147.871094 C 182.585938 145.691406 183.671875 144.523438 183.671875 144.523438 C 183.671875 144.523438 182.359375 145.429688 179.902344 147.125 C 177.449219 148.832031 173.886719 151.382812 169.4375 154.769531 C 164.996094 158.164062 159.683594 162.414062 153.828125 167.632812 C 147.988281 172.863281 141.589844 179.046875 135.1875 186.503906 C 131.992188 190.234375 128.804688 194.292969 125.769531 198.761719 C 122.742188 203.234375 119.832031 208.097656 117.335938 213.5 C 114.863281 218.910156 112.738281 224.851562 111.65625 231.453125 C 111.113281 234.746094 110.835938 238.195312 110.945312 241.757812 C 111.050781 245.316406 111.554688 248.988281 112.546875 252.625 C 114.527344 259.90625 118.636719 266.949219 124.15625 272.371094 C 126.898438 275.109375 129.933594 277.5 133.148438 279.507812 C 136.355469 281.527344 139.726562 283.203125 143.171875 284.574219 C 146.617188 285.953125 150.144531 287 153.695312 287.808594 C 154.582031 288.003906 155.472656 288.207031 156.363281 288.363281 C 157.253906 288.53125 158.148438 288.695312 159.039062 288.824219 L 160.378906 289.027344 L 161.722656 289.195312 L 163.066406 289.355469 L 164.488281 289.484375 C 168.246094 289.789062 171.789062 289.777344 175.300781 289.628906 C 178.808594 289.46875 182.253906 289.140625 185.667969 288.675781 C 195.457031 287.328125 204.855469 284.957031 213.804688 281.609375 C 222.742188 278.257812 231.226562 273.867188 238.808594 268.28125 C 242.597656 265.488281 246.140625 262.382812 249.351562 259 C 250.949219 257.296875 252.464844 255.535156 253.886719 253.707031 C 255.296875 251.871094 256.617188 249.984375 257.824219 248.042969 C 260.226562 244.148438 262.203125 240.074219 263.667969 235.933594 C 264.050781 234.902344 264.367188 233.859375 264.691406 232.828125 C 264.859375 232.308594 264.988281 231.785156 265.132812 231.269531 C 265.269531 230.75 265.425781 230.234375 265.539062 229.714844 C 265.777344 228.675781 266.03125 227.648438 266.214844 226.613281 C 266.3125 226.097656 266.414062 225.585938 266.503906 225.070312 C 266.578125 224.539062 266.652344 224.011719 266.726562 223.484375 C 267.324219 219.28125 267.457031 214.992188 266.972656 210.777344 Z M 266.972656 210.777344 " fill-opacity="1" fill-rule="nonzero"/></g><g clip-path="url(#2d53b4f185)"><path fill="#64ffda" d="M 186.847656 16.339844 C 163.796875 16.339844 141.789062 20.828125 120.796875 29.8125 C 99.800781 38.792969 81.6875 50.917969 66.417969 66.1875 C 51.152344 81.457031 39.027344 99.605469 30.042969 120.5625 C 21.0625 141.519531 16.570312 163.5625 16.570312 186.617188 C 16.570312 209.667969 21.0625 231.671875 30.042969 252.667969 C 39.027344 273.664062 51.152344 291.773438 66.417969 307.042969 C 81.6875 322.3125 99.839844 334.4375 120.796875 343.417969 C 141.753906 352.402344 163.796875 356.890625 186.847656 356.890625 C 209.902344 356.890625 231.90625 352.402344 252.902344 343.417969 C 273.894531 334.4375 292.007812 322.3125 307.277344 307.042969 C 322.546875 291.773438 334.671875 273.625 343.652344 252.667969 C 352.632812 231.671875 357.125 209.667969 357.125 186.617188 C 357.125 163.5625 352.632812 141.558594 343.652344 120.5625 C 334.671875 99.566406 322.546875 81.457031 307.277344 66.1875 C 292.007812 50.917969 273.859375 38.792969 252.902344 29.8125 C 231.90625 20.828125 209.902344 16.339844 186.847656 16.339844 Z M 186.847656 3.242188 C 237.296875 3.242188 280.480469 21.203125 316.371094 57.09375 C 352.261719 92.980469 370.222656 136.167969 370.222656 186.617188 C 370.222656 237.0625 352.261719 280.25 316.371094 316.136719 C 280.480469 352.027344 237.296875 369.992188 186.847656 369.992188 C 136.402344 369.992188 93.214844 352.027344 57.324219 316.136719 C 21.4375 280.25 3.472656 237.0625 3.472656 186.617188 C 3.472656 136.167969 21.4375 92.980469 57.324219 57.09375 C 93.214844 21.203125 136.402344 3.242188 186.847656 3.242188 Z M 186.847656 3.242188 " fill-opacity="1" fill-rule="nonzero"/></g></svg>